<?xml version="1.0" encoding="UTF-8"?>
<svg version="1.1" xmlns="http://www.w3.org/2000/svg" width="2000" height="1500">
<path d="M0 0 C8.04597231 4.72185444 12.27710217 15.66055805 16.75 23.5 C17.74242138 25.2298456 18.73484765 26.95968843 19.72756958 28.68936157 C20.75014091 30.47189872 21.77140134 32.25518197 22.79248047 34.03857422 C25.952199 39.55439769 29.13356868 45.05773567 32.3125 50.5625 C33.5613157 52.72649453 34.8100133 54.89055723 36.05859375 57.0546875 C36.67718262 58.12686523 37.29577148 59.19904297 37.93310547 60.30371094 C39.82230166 63.57949566 41.71014109 66.85605893 43.59765625 70.1328125 C50.2720781 81.71634184 56.97592425 93.281617 63.72338867 104.82275391 C69.48878414 114.69660342 75.16174564 124.62269445 80.8125 134.5625 C83.06719828 131.68401992 84.91114299 128.74736626 86.67578125 125.546875 C87.22548584 124.5556665 87.77519043 123.56445801 88.34155273 122.54321289 C89.22435913 120.94401001 89.22435913 120.94401001 90.125 119.3125 C94.91379792 110.6981502 99.76650543 102.12859327 104.75 93.625 C105.61214111 92.15377686 105.61214111 92.15377686 106.49169922 90.65283203 C107.07193848 89.6626709 107.65217773 88.67250977 108.25 87.65234375 C111.94463337 81.34679535 115.6009724 75.01952466 119.25 68.6875 C119.87181152 67.60879639 120.49362305 66.53009277 121.13427734 65.41870117 C123.02749899 62.13357749 124.92010983 58.84810272 126.8125 55.5625 C128.07544656 53.36974889 129.33846731 51.1770405 130.6015625 48.984375 C131.22562988 47.90099854 131.84969727 46.81762207 132.49267578 45.70141602 C134.35646651 42.46963673 136.22499035 39.24062667 138.09375 36.01171875 C140.63874218 31.6110031 143.15517481 27.19534138 145.65625 22.76953125 C146.89574217 20.59630217 148.1353222 18.4231232 149.375 16.25 C149.93453369 15.24759277 150.49406738 14.24518555 151.07055664 13.21240234 C154.64253396 6.98524984 157.81449797 2.77192217 164.1875 -0.75 C170.60128605 -2.42980111 175.34238723 -1.81429787 181.0546875 1.35546875 C185.26935283 4.24953894 188.27147444 8.69090278 189.21875 13.71875 C189.67823242 25.2058105 182.03800354 35.13581915 176.375 44.6875 C175.13481764 46.79652286 173.89525562 48.90591061 172.65625 51.015625 C171.70492187 52.63307617 171.70492187 52.63307617 170.734375 54.28320312 C167.58765867 59.65244775 164.48096039 65.04460835 161.375 70.4375 C160.44324951 72.05398438 160.44324951 72.05398438 159.49267578 73.703125 C157.59874084 76.98927082 155.70550993 80.27582124 153.8125 83.5625 C151.2924091 87.9379283 148.77156871 92.3129232 146.25 96.6875 C145.63310303 97.75846924 145.01620605 98.82943848 144.38061523 99.93286133 C141.29814155 105.27816104 138.2010622 110.61411171 135.07421875 115.93359375 C114.98066003 146.72267068 114.98066003 146.72267068 111.54296875 181.94140625 C116.41824767 197.97526581 125.47652542 212.57343026 134.02734375 226.87890625 C137.45237366 232.61416229 140.78746435 238.40102908 144.125 244.1875 C144.76429443 245.29416016 145.40358887 246.40082031 146.06225586 247.54101562 C149.75200808 253.94148287 153.38975388 260.36801812 156.98754883 266.82055664 C171.8818283 293.46681568 184.80608041 311.776084 215.21972656 320.85546875 C224.2726136 323.32412796 234.92655124 325.88415577 244 322.3125 C253.41646534 316.49207612 259.39191179 303.51065348 264.5625 294.1875 C265.25064076 292.96593985 265.94003401 291.7450845 266.63061523 290.52490234 C268.02396148 288.06243887 269.4147519 285.59857838 270.80224609 283.1328125 C273.80231049 277.80352569 276.81718208 272.48391582 279.875 267.1875 C280.37418945 266.29756348 280.87337891 265.40762695 281.38769531 264.49072266 C284.9459475 258.36315058 288.86813824 252.87728725 295.8125 250.5625 C302.0563213 249.78618119 306.88118628 250.21353144 312.05078125 253.95703125 C316.56929469 258.07478962 319.06930583 262.26540301 319.4375 268.4375 C318.76057584 278.09094275 311.99455797 286.86421219 307.1875 295 C305.94094489 297.11952039 304.69485681 299.23931553 303.44921875 301.359375 C302.83481934 302.40416016 302.22041992 303.44894531 301.58740234 304.52539062 C299.96353689 307.30405449 298.36051329 310.09303795 296.76953125 312.890625 C292.005545 321.25894295 287.09997574 329.3584636 281.4921875 337.19140625 C279.81365425 339.43343954 279.81365425 339.43343954 278.8125 341.5625 C279.9675 341.8925 281.1225 342.2225 282.3125 342.5625 C305.73550006 350.41911758 326.12232473 365.74275304 343.8125 382.5625 C344.50730469 383.19285156 345.20210937 383.82320312 345.91796875 384.47265625 C357.00971307 394.87831329 365.52021204 408.3120063 372.8125 421.5625 C373.14169434 422.15901367 373.47088867 422.75552734 373.81005859 423.37011719 C386.33297501 446.42522312 393.91005348 471.38303522 400.8125 496.5625 C401.1445343 497.77035156 401.4765686 498.97820312 401.81866455 500.22265625 C404.35464825 509.45349945 406.85929678 518.69254317 409.34711838 527.93647385 C409.93494904 530.11554367 410.52636566 532.29361191 411.11868286 534.47146606 C412.06312553 537.94730266 412.9955413 541.42616588 413.91938591 544.90753174 C414.43089211 546.82485309 414.95327509 548.73926236 415.47596741 550.65356445 C417.80419772 559.50080164 419.71874917 567.51001468 415.015625 575.83984375 C412.19988948 579.87146506 408.49875391 582.25470821 403.8125 583.5625 C395.87387455 584.24595782 388.61125263 581.91962554 381.03125 579.84375 C379.60802138 579.46173557 378.18455517 579.08060532 376.76086426 578.70031738 C373.03656809 577.70298516 369.31559666 576.69376722 365.59521484 575.6819458 C361.78938914 574.6491831 357.98050702 573.62782373 354.171875 572.60546875 C346.71573139 570.60222413 339.26306696 568.58639907 331.8125 566.5625 C333.32737451 574.94129988 335.47197117 583.12532839 337.6796875 591.34375 C338.07084274 592.80900501 338.4617403 594.27432883 338.85240173 595.73971558 C339.90702946 599.69203341 340.96573634 603.64324701 342.02557755 607.59416962 C342.68999549 610.07180575 343.35350196 612.54968415 344.01669312 615.02764893 C346.3295562 623.6693984 348.64576456 632.31024302 350.96533203 640.95019531 C352.8482976 647.96400137 354.72684494 654.97897163 356.60107422 661.99511719 C358.62411292 669.56832055 360.65174975 677.1402733 362.68527985 684.71066666 C363.75216628 688.68271736 364.81720188 692.65523832 365.87713623 696.62915039 C378.27854746 743.10127915 389.85483204 768.13989421 432.421875 792.86328125 C433.52595703 793.50217285 434.63003906 794.14106445 435.76757812 794.79931641 C438.33594254 796.28654602 440.89665398 797.78544031 443.453125 799.29296875 C453.63376173 805.47156617 453.63376173 805.47156617 465.18359375 806.265625 C488.98166586 799.90061314 524.46355895 777.88567081 537.91137695 756.84301758 C542.51908087 748.48559599 545.62012805 739.53485502 548.27734375 730.40234375 C548.77848442 728.69433846 548.77848442 728.69433846 549.28974915 726.951828 C554.71501386 708.23346754 559.64236537 689.37231591 564.65667725 670.54089355 C566.86981202 662.23262834 569.08993779 653.92622678 571.30896378 645.61953354 C572.13337778 642.53204341 572.95674964 639.44427674 573.77999878 636.35647583 C576.67244968 625.51555911 579.58979292 614.68187497 582.54150391 603.85693359 C582.84540574 602.74106086 583.14930758 601.62518812 583.46241856 600.47550106 C584.92599779 595.10213185 586.39329919 589.72983386 587.86735535 584.35932922 C588.39064919 582.4410115 588.91379493 580.52265336 589.43676758 578.60424805 C589.67882998 577.72805754 589.92089237 576.85186703 590.17028999 575.94912529 C590.38812582 575.14713266 590.60596165 574.34514004 590.83039856 573.5188446 C591.02118894 572.8230363 591.21197931 572.12722799 591.40855122 571.41033459 C591.91928158 569.38928075 591.91928158 569.38928075 591.8125 566.5625 C590.63645203 566.88196594 590.63645203 566.88196594 589.43664551 567.20788574 C582.02487654 569.21932581 574.61058216 571.22104726 567.19330597 573.21207428 C563.38067084 574.23586559 559.56909945 575.26330297 555.75976562 576.29931641 C552.07922913 577.30015324 548.3961551 578.29109339 544.71116638 579.27540588 C543.31011925 579.65146649 541.91000009 580.03100319 540.51087952 580.41416931 C522.03651993 585.46744635 522.03651993 585.46744635 513.5703125 580.76953125 C509.80801627 578.18608784 507.6113893 574.6733966 505.8125 570.5625 C504.29951013 561.64625851 507.57408447 552.61005581 509.90625 544.09375 C510.3364412 542.48906495 510.76566111 540.88411923 511.19396973 539.27893066 C512.0943493 535.91480299 513.00286595 532.55302312 513.91796875 529.19287109 C515.06803451 524.96944025 516.20336769 520.74224244 517.33330536 516.51338768 C521.41533034 501.24405203 525.56343641 485.99838358 530.1875 470.8828125 C530.4908728 469.88817993 530.79424561 468.89354736 531.10681152 467.86877441 C540.8916956 436.51478423 556.21036069 407.49648114 578.8125 383.5625 C579.54597656 382.76457031 580.27945313 381.96664063 581.03515625 381.14453125 C597.57546598 363.77582537 621.63861362 348.18361039 644.8125 341.5625 C644.42320312 340.9540625 644.03390625 340.345625 643.6328125 339.71875 C642.05146858 337.24106828 640.47631891 334.75953194 638.90283203 332.27685547 C637.83559326 330.59881009 636.75968421 328.92628904 635.68359375 327.25390625 C629.28271819 317.23020714 623.38125762 306.93188783 617.52172852 296.58618164 C614.08543594 290.52240534 610.61050418 284.49614677 606.95019531 278.56396484 C604.2362297 273.78948199 604.10763467 268.90838875 604.8125 263.5625 C606.92160189 258.42539292 610.165701 254.61960461 614.8125 251.5625 C619.64314775 249.95228408 624.9603112 249.60447113 629.84765625 251.24609375 C638.10644529 255.62052926 642.01834369 264.07569192 646.3991394 271.89697266 C647.45349407 273.77854254 648.51579069 275.6554213 649.58032227 277.53125 C652.22436726 282.19319273 654.85639292 286.86185353 657.48291016 291.53369141 C666.60404707 310.1894748 666.60404707 310.1894748 681.55859375 323.07421875 C697.77126682 326.58649628 719.48108982 319.44955469 733.421875 310.9765625 C750.31922592 298.56574958 759.6945905 278.49706395 769.84609985 260.74523926 C772.70239037 255.75069609 775.5751481 250.76580036 778.45263672 245.78344727 C779.69250213 243.63622433 780.93110941 241.48827442 782.16845703 239.33959961 C785.04079999 234.35271531 787.92039093 229.3706033 790.83013916 224.40542603 C809.09638575 195.96242887 809.09638575 195.96242887 812.19140625 163.5078125 C807.62320107 147.22469893 798.8047223 132.88159144 790.16471863 118.50938416 C789.81258804 117.92363113 789.46045746 117.33787811 789.09765625 116.734375 C788.56529106 115.84891747 788.56529106 115.84891747 788.02217102 114.9455719 C784.16858003 108.51851351 780.45312139 102.01455119 776.75 95.5 C776.08218072 94.32654002 775.41429334 93.1531188 774.74633789 91.97973633 C773.74985636 90.22918945 772.75339844 88.4786295 771.75730896 86.7278595 C768.27876961 80.61726925 764.76650045 74.526298 761.25 68.4375 C760.6430127 67.38570557 760.03602539 66.33391113 759.41064453 65.25024414 C756.51959094 60.24248522 753.62475875 55.23695406 750.72270203 50.23556519 C749.68880525 48.45321821 748.65589096 46.67030559 747.62329102 44.88720703 C746.32889507 42.65265423 745.03262699 40.41918441 743.73413086 38.18701172 C733.25637362 20.08736623 733.25637362 20.08736623 734.8125 11.5625 C737.0932305 5.91405254 740.43927742 2.48272967 745.8125 -0.4375 C751.09848588 -2.19949529 755.85362357 -2.15254789 760.9375 0.0625 C768.8631975 4.65563918 772.91241214 13.9182368 777.24441528 21.644104 C778.27835414 23.48806779 779.31883142 25.32820421 780.36108398 27.16748047 C781.44550039 29.08125404 782.52956309 30.99521616 783.61164856 32.91030884 C787.16123745 39.19146284 790.76341809 45.44180674 794.375 51.6875 C795.61590436 53.83592656 796.85678977 55.98436406 798.09765625 58.1328125 C798.71012207 59.19274414 799.32258789 60.25267578 799.95361328 61.34472656 C803.69800821 67.82635581 807.43743725 74.31085242 811.17675781 80.79541016 C814.35954539 86.31407401 817.54580016 91.83068724 820.73828125 97.34375 C827.88107208 109.68656386 834.94862961 122.06218074 841.8125 134.5625 C844.5033148 131.32983025 846.75134808 128.13472803 848.7734375 124.44921875 C849.31991943 123.46123291 849.86640137 122.47324707 850.42944336 121.45532227 C851.2996814 119.86868774 851.2996814 119.86868774 852.1875 118.25 C856.95098026 109.65324565 861.77866631 101.10334764 866.75 92.625 C871.61192157 84.32872879 876.44862536 76.01898544 881.25 67.6875 C881.87108643 66.61024658 882.49217285 65.53299316 883.13208008 64.4230957 C886.30301155 58.9216465 889.47073667 53.41836119 892.63671875 47.9140625 C895.74619114 42.5100057 898.86380013 37.11072467 901.98828125 31.71533203 C903.2119428 29.60045446 904.43327022 27.48422477 905.65234375 25.36669922 C907.40629375 22.32321878 909.1705215 19.28593027 910.9375 16.25 C911.45779785 15.34282227 911.9780957 14.43564453 912.51416016 13.50097656 C916.78782071 6.19984872 920.43831711 1.30576681 928.8125 -1.4375 C934.28290254 -2.02361456 938.02170112 -1.13776846 942.8125 1.5625 C947.64335287 5.5512776 949.57780945 9.79831673 950.87890625 15.83984375 C950.68338494 23.85621732 945.35220542 31.30360653 941.5 38.0625 C940.88116943 39.15763916 940.26233887 40.25277832 939.62475586 41.38110352 C934.29014798 50.79277474 928.84590383 60.13975921 923.375 69.47265625 C919.6803669 75.77820419 916.02397319 82.10544436 912.375 88.4375 C911.75246338 89.51765381 911.12992676 90.59780762 910.48852539 91.71069336 C909.22673174 93.90046334 907.96509466 96.09032355 906.70361328 98.28027344 C903.57569852 103.70909942 900.44391552 109.13569281 897.3125 114.5625 C896.06248121 116.72915583 894.81248122 118.8958225 893.5625 121.0625 C871.0625 160.0625 848.5625 199.0625 826.0625 238.0625 C825.1336499 239.67257935 825.1336499 239.67257935 824.18603516 241.31518555 C822.94108718 243.47299803 821.6959711 245.63071353 820.45068359 247.78833008 C817.24697349 253.33966592 814.0465637 258.89286541 810.8515625 264.44921875 C804.2727964 275.88368262 797.65429897 287.2832452 790.8125 298.5625 C806.77864509 294.60855696 822.68104908 290.42567378 838.57983398 286.21020508 C841.92240142 285.32446188 845.26615547 284.44343407 848.61108398 283.56665039 C864.84676139 279.3088338 881.05777632 275.02511429 897.01171875 269.79296875 C898.06043655 269.45380936 899.10915436 269.11464996 900.18965149 268.76521301 C933.56868018 257.46436958 947.48783026 225.60064954 963.87890625 196.94140625 C968.95354019 188.07361159 974.05866027 179.2234461 979.18212891 170.38378906 C980.6450881 167.8521993 982.09542071 165.31385439 983.54296875 162.7734375 C984.31959009 161.43187321 985.09686611 160.09068755 985.875 158.75 C986.82052734 157.10064453 986.82052734 157.10064453 987.78515625 155.41796875 C991.07329789 150.78669411 995.20594259 147.03088408 1000.8125 145.5625 C1007.1620095 144.93795808 1011.51713149 145.93811444 1016.8125 149.5625 C1021.51219197 154.38586808 1023.10982411 158.73117427 1023.02294922 165.45483398 C1022.68250193 168.8644412 1021.33256786 171.42020501 1019.75 174.4375 C1019.40275879 175.10330078 1019.05551758 175.76910156 1018.69775391 176.45507812 C1012.74881182 187.67836575 1006.22300126 198.59972938 999.8125 209.5625 C998.56848443 211.69891256 997.32498213 213.83562409 996.08203125 215.97265625 C993.18772464 220.94650046 990.28529222 225.91553046 987.37890625 230.88232422 C985.92584766 233.36855819 984.47778561 235.8576234 983.03125 238.34765625 C951.38679515 292.70137923 913.4880874 304.98937082 855.06388092 320.45823669 C850.36818017 321.70284889 845.67412526 322.95363616 840.97998047 324.20410156 C835.13502422 325.76081845 829.2899756 327.31718165 823.44430542 328.87121582 C804.66446983 333.86382042 785.89282883 338.88676414 767.12426758 343.92156982 C762.92747236 345.04728457 758.73022322 346.1712956 754.53283501 347.29479694 C737.94639701 351.73529048 721.36942581 356.20962484 704.80990219 360.74956512 C703.07979884 361.22379162 701.34953138 361.69741986 699.6190834 362.17038727 C680.7370909 367.33435496 662.4787586 373.03381755 644.8125 381.5625 C643.83506836 382.027771 643.83506836 382.027771 642.83789062 382.50244141 C616.74039334 395.07898763 596.5574502 415.24841713 582.8125 440.5625 C582.46010254 441.20058594 582.10770508 441.83867188 581.74462891 442.49609375 C567.05467301 469.60775288 559.92478299 501.23849793 552.29655457 530.89085388 C551.54289301 533.81513915 550.76784874 536.69645377 549.8125 539.5625 C550.51020508 539.31725586 551.20791016 539.07201172 551.92675781 538.81933594 C557.98345442 536.81447936 563.83198419 535.31634492 570.1232605 534.31103516 C589.16554223 532.00166399 589.16554223 532.00166399 605.2923584 522.98022461 C610.45373495 515.27112527 611.2740835 505.35064881 612.29785156 496.35107422 C612.98340147 491.30441223 614.42832707 486.83517981 616.3125 482.125 C616.59182373 481.3935376 616.87114746 480.6620752 617.15893555 479.90844727 C621.92414378 467.7799528 627.95783761 456.20238717 636.8125 446.5625 C637.53695312 445.74652344 638.26140625 444.93054688 639.0078125 444.08984375 C663.46886885 417.97383144 702.29941625 410.63696978 735.57958984 401.76586914 C739.56935824 400.701807 743.55329473 399.61738033 747.53623199 398.52806759 C750.66001265 397.67688666 753.78710849 396.8384409 756.91526794 396.00351143 C758.38664323 395.60879909 759.85687858 395.20980763 761.32582092 394.80613518 C781.89139776 389.17046847 781.89139776 389.17046847 789.75 393.25 C794.24640561 396.64524505 797.25033614 400.09492649 798.8125 405.5625 C799.20407116 411.59317929 797.97103323 416.70186385 796.3984375 422.45703125 C796.02025375 423.87637215 796.02025375 423.87637215 795.63442993 425.3243866 C795.09883999 427.32667264 794.55898285 429.32782152 794.01513672 431.32788086 C793.20120233 434.32455198 792.40221633 437.32489149 791.60546875 440.32617188 C789.16473829 449.44618547 786.6167476 458.51671036 783.66015625 467.484375 C783.43165985 468.18283035 783.20316345 468.88128571 782.96774292 469.60090637 C780.36195647 477.2971192 776.74496766 484.4682493 772.8125 491.5625 C772.25820312 492.57054687 771.70390625 493.57859375 771.1328125 494.6171875 C764.46807698 505.87389391 755.19599803 514.26618697 743.8125 520.5625 C742.73484375 521.18511719 741.6571875 521.80773437 740.546875 522.44921875 C732.48269315 526.91393274 724.08228353 529.96790277 715.3125 532.75390625 C713.49637962 533.3336747 713.49637962 533.3336747 711.64356995 533.92515564 C697.50196118 538.39678643 683.18931073 542.24299494 668.86035156 546.06103516 C665.98900174 546.82836719 663.11986549 547.60380726 660.25069332 548.37923527 C657.46603745 549.13110679 654.68036101 549.87913335 651.89431953 550.62585258 C650.57635874 550.97936656 649.25864959 551.33382016 647.94120598 551.68925667 C646.12579608 552.17819882 644.3089034 552.66162556 642.49194336 553.14477539 C641.4638707 553.41963272 640.43579803 553.69449005 639.37657166 553.97767639 C636.8125 554.5625 636.8125 554.5625 633.8125 554.5625 C633.58103271 555.57220352 633.34956543 556.58190704 633.11108398 557.62220764 C630.57869158 568.57767579 627.78416412 579.44786097 624.875 590.30859375 C624.39689602 592.10080387 623.91899127 593.89306715 623.44126892 595.68537903 C622.1657258 600.46795969 620.88688557 605.24965218 619.60703659 610.03108215 C618.80794246 613.01702999 618.00958293 616.0031733 617.2114563 618.98937988 C614.21317673 630.20697648 611.21061485 641.42341926 608.20412731 652.63881874 C606.41540773 659.31163829 604.6287954 665.98501874 602.84326172 672.65869141 C600.57431135 681.13806648 598.29892447 689.61569501 596.01879883 698.09207153 C595.18335819 701.19834266 594.35008495 704.3051817 593.51879883 707.41256714 C580.18905182 757.21817974 569.17857484 790.68234625 523.1875 817.5 C519.07177536 819.8706233 514.9426962 822.21721271 510.8125 824.5625 C508.76008745 825.73900921 506.70800071 826.91608697 504.65625 828.09375 C469.70032629 848.0896033 469.70032629 848.0896033 456.8125 846.5625 C447.27843439 843.84069831 438.76605998 839.72253684 430.1875 834.8125 C429.04522949 834.16780762 427.90295898 833.52311523 426.72607422 832.85888672 C418.04878057 827.93998517 409.47402789 822.84609361 400.9375 817.6875 C399.81649902 817.01106445 398.69549805 816.33462891 397.54052734 815.63769531 C385.89313975 808.52417851 374.58461066 801.16641598 364.8125 791.5625 C364.11511719 790.87800781 363.41773438 790.19351563 362.69921875 789.48828125 C345.58266021 771.50758577 340.36010242 745.24538126 334.125 722.0625 C333.57965274 720.05050622 333.03296774 718.03887926 332.48612213 716.02729225 C329.90847964 706.5443301 327.35709394 697.05437609 324.8125 687.5625 C324.50598385 686.41930046 324.50598385 686.41930046 324.19327545 685.25300598 C319.120838 666.33122879 314.07725413 647.40181674 309.04652977 628.46891212 C306.11825634 617.44995735 303.17244058 606.43584975 300.2109375 595.42578125 C299.850512 594.08502818 299.49010923 592.74426899 299.12973022 591.40350342 C297.7809374 586.38614087 296.4319728 581.36882924 295.07806396 576.35284424 C294.18015486 573.0261542 293.2851146 569.69870454 292.390625 566.37109375 C291.9938002 564.90667595 291.9938002 564.90667595 291.58895874 563.41267395 C291.35238556 562.53068832 291.11581238 561.6487027 290.87207031 560.73999023 C290.66592102 559.97581284 290.45977173 559.21163544 290.24737549 558.42430115 C289.8125 556.5625 289.8125 556.5625 289.8125 554.5625 C288.9736602 554.40976875 288.9736602 554.40976875 288.11787415 554.25395203 C280.57793075 552.8192992 273.20146285 550.89025152 265.79296875 548.89453125 C264.44511989 548.53291765 263.09724434 548.1714035 261.74934387 547.8099823 C258.93066375 547.05326082 256.11270338 546.29392367 253.29516602 545.53295898 C250.45256712 544.76557028 247.60885363 544.00256844 244.76391602 543.24389648 C217.71055543 536.02808302 217.71055543 536.02808302 204.83984375 531.76171875 C203.63137032 531.36216728 203.63137032 531.36216728 202.39848328 530.95454407 C194.48572018 528.2494304 187.09694997 524.64604872 179.8125 520.5625 C178.30623047 519.73298828 178.30623047 519.73298828 176.76953125 518.88671875 C147.61635243 501.65797132 138.8330751 466.65258172 130.66015625 436.12695312 C129.9278985 433.40176683 129.17906995 430.68145821 128.4296875 427.9609375 C127.95472493 426.20079151 127.48073003 424.44038405 127.0078125 422.6796875 C126.67512863 421.48108597 126.67512863 421.48108597 126.33572388 420.25827026 C124.37528119 412.81959681 123.70357554 406.31746841 127.53515625 399.390625 C130.20324482 395.57207623 133.35504487 393.04831838 137.8125 391.5625 C147.08284071 390.55880116 155.62487128 392.97200315 164.46875 395.40234375 C165.97992535 395.80773289 167.49136568 396.21213537 169.00305176 396.61561584 C172.16897411 397.46376616 175.33219521 398.32114884 178.49365234 399.18579102 C182.45724069 400.26943982 186.42560508 401.33409181 190.39601135 402.39244843 C205.38679847 406.39334783 220.30301807 410.54336649 235.03125 415.43359375 C236.10306519 415.78936996 237.17488037 416.14514618 238.2791748 416.51170349 C246.89206382 419.44664262 254.923844 423.04004354 262.8125 427.5625 C263.82054687 428.13613281 264.82859375 428.70976563 265.8671875 429.30078125 C272.54861034 433.32629224 278.2553251 438.10472173 283.8125 443.5625 C284.57433594 444.29984375 285.33617187 445.0371875 286.12109375 445.796875 C306.14340731 466.47850218 312.75845955 497.61681145 319.8125 524.5625 C320.78302811 524.82225868 320.78302811 524.82225868 321.77316284 525.08726501 C328.48928118 526.88526325 335.20459124 528.68625609 341.91943359 530.48901367 C344.42768961 531.16198815 346.93615276 531.83419108 349.44482422 532.50561523 C353.04448931 533.46917632 356.64340758 534.43548269 360.2421875 535.40234375 C361.93285843 535.85395119 361.93285843 535.85395119 363.65768433 536.31468201 C365.21907639 536.7350045 365.21907639 536.7350045 366.81201172 537.16381836 C367.73134491 537.41030624 368.6506781 537.65679413 369.59786987 537.91075134 C371.8125 538.5625 371.8125 538.5625 373.8125 539.5625 C359.33704591 479.04413836 359.33704591 479.04413836 330.8125 424.5625 C330.16796875 423.71042969 329.5234375 422.85835937 328.859375 421.98046875 C326.8938944 419.46171309 324.86740259 417.00862444 322.8125 414.5625 C322.1834375 413.77488281 321.554375 412.98726562 320.90625 412.17578125 C307.17998126 395.78344877 287.8024079 385.31118955 268.5 376.875 C267.74428711 376.54274414 266.98857422 376.21048828 266.20996094 375.86816406 C250.35938983 369.19184901 233.69503562 364.52209668 217.09375 360.140625 C215.22458925 359.64201983 213.35558579 359.14282468 211.48672485 358.64309692 C207.50420749 357.57948079 203.52065355 356.5198783 199.53619385 355.46356201 C193.1966265 353.78280141 186.85964704 352.09242066 180.52294922 350.40087891 C170.42167021 347.70553379 160.31882156 345.01612727 150.21528053 342.32927513 C131.76362813 337.42230063 113.31394313 332.50795425 94.86649704 327.58518982 C88.34886805 325.84623816 81.83018337 324.11131829 75.31067371 322.37943172 C-10.71679395 299.51654294 -10.71679395 299.51654294 -29.1875 281.5625 C-29.80109375 281.01078125 -30.4146875 280.4590625 -31.046875 279.890625 C-47.95542549 264.22306905 -58.80690392 239.22833783 -70.1875 219.5625 C-70.81237305 218.48307129 -71.43724609 217.40364258 -72.08105469 216.29150391 C-75.85647116 209.76603318 -79.62254033 203.2352463 -83.38134766 196.70019531 C-85.16120586 193.60817888 -86.94565516 190.51884545 -88.73046875 187.4296875 C-89.82054382 185.53659151 -90.91039925 183.64336903 -92 181.75 C-92.49773926 180.89059814 -92.99547852 180.03119629 -93.50830078 179.14575195 C-97.20346341 172.70752653 -100.33372776 167.24647125 -99.1875 159.5625 C-97.05521891 153.21176012 -93.78883008 149.50916491 -87.875 146.3125 C-81.52415378 144.54017082 -76.91587825 145.25841471 -71.14453125 148.1015625 C-64.88027795 152.77787135 -61.51156327 159.9264461 -57.77416992 166.60720825 C-56.36861655 169.11906949 -54.94921603 171.62301253 -53.53060913 174.1275177 C-52.80309201 175.41213343 -52.07622661 176.69711847 -51.3500061 177.98246765 C-46.33365244 186.85687342 -41.18039773 195.65114549 -36.01757812 204.44091797 C-34.39069712 207.2159047 -32.7707923 209.99485468 -31.15281677 212.77503967 C-3.61273115 260.05548236 24.8795898 270.34135614 76.17773438 283.88476562 C79.2472853 284.69264321 82.31711333 285.49945958 85.38702393 286.30596924 C90.63925927 287.68784376 95.88883422 289.07975297 101.13867188 290.47070312 C111.3607688 293.17753867 121.58566276 295.87363381 131.8125 298.5625 C130.75895641 295.40186922 129.36420126 292.87865093 127.70703125 289.98828125 C127.06048584 288.85825684 126.41394043 287.72823242 125.74780273 286.56396484 C125.04032254 285.33424044 124.33271847 284.10458729 123.625 282.875 C122.89578585 281.60375229 122.16670213 280.33242977 121.43774414 279.06103516 C116.34288764 270.18407632 111.19986622 261.33551602 106.03222656 252.50073242 C99.87652595 241.97531952 93.78980199 231.41043803 87.70361328 220.84472656 C84.57569852 215.41590058 81.44391552 209.98930719 78.3125 204.5625 C77.06248121 202.39584417 75.81248122 200.2291775 74.5625 198.0625 C73.94375 196.99 73.325 195.9175 72.6875 194.8125 C22.0625 107.0625 22.0625 107.0625 20.18725586 103.81201172 C18.93814482 101.64692929 17.68895871 99.48189018 16.43969727 97.31689453 C13.30047691 91.87634294 10.16259437 86.43502784 7.02734375 80.9921875 C1.43528561 71.28706995 -4.16348982 61.58633918 -9.81347656 51.91479492 C-11.00490082 49.87444074 -12.19440964 47.83296666 -13.38183594 45.7902832 C-15.82169445 41.59461557 -18.26876413 37.40797607 -20.8046875 33.26953125 C-25.00826549 26.348832 -28.22772964 20.71141301 -26.8359375 12.484375 C-25.14986873 6.59437477 -21.11651271 2.99094634 -16.1875 -0.4375 C-10.75964968 -2.24678344 -5.31348516 -2.24801295 0 0 Z M168.8125 435.5625 C176.63596948 466.57107146 176.63596948 466.57107146 197.89453125 488.91015625 C214.70246768 498.42790338 234.11075945 502.75028692 252.62249756 507.79486084 C254.49652367 508.30589977 256.36978049 508.81976827 258.24224854 509.33648682 C260.90102266 510.06794871 263.56307674 510.78591149 266.2265625 511.5 C267.03299194 511.72356171 267.83942139 511.94712341 268.67028809 512.17745972 C272.45404465 513.17581278 275.07179419 513.73068737 278.8125 512.5625 C271.5705498 488.9446608 264.4432 469.57931196 241.59375 457.37768555 C235.72656297 454.34580745 229.83135003 451.93896476 223.5625 449.875 C222.08293823 449.38386719 222.08293823 449.38386719 220.57348633 448.8828125 C210.31778669 445.57417512 199.91867824 442.80480524 189.5 440.0625 C188.64555298 439.83704498 187.79110596 439.61158997 186.9107666 439.37930298 C184.46662737 438.73700688 182.02090627 438.10126263 179.57421875 437.46875 C178.83461411 437.27540573 178.09500946 437.08206146 177.33299255 436.88285828 C174.40837481 436.13587202 171.8447346 435.5625 168.8125 435.5625 Z M747.64257812 436.55297852 C746.80319702 436.7706337 745.96381592 436.98828888 745.09899902 437.21253967 C744.18976685 437.45306564 743.28053467 437.69359161 742.34375 437.94140625 C741.39423462 438.19115707 740.44471924 438.4409079 739.46643066 438.69822693 C737.44501574 439.23174998 735.42415596 439.76738008 733.40380859 440.30493164 C730.382247 441.10649738 727.35735185 441.89440186 724.33203125 442.68164062 C686.72315535 452.27711859 686.72315535 452.27711859 658.8125 477.5625 C652.38602576 488.70507569 648.35129222 500.23034529 644.8125 512.5625 C648.06665364 513.62857179 650.10258058 513.47259687 653.38720703 512.57788086 C654.28980255 512.3369017 655.19239807 512.09592255 656.12234497 511.84764099 C657.09517426 511.5769429 658.06800354 511.30624481 659.0703125 511.02734375 C660.08737274 510.75161026 661.10443298 510.47587677 662.15231323 510.19178772 C664.31390065 509.60357293 666.47420323 509.01061944 668.63330078 508.41333008 C671.87369306 507.51763719 675.11795656 506.6373962 678.36328125 505.75976562 C687.91918027 503.1574191 697.44110275 500.47481358 706.8515625 497.3828125 C707.89197189 497.04484901 707.89197189 497.04484901 708.95339966 496.70005798 C723.06597943 491.9338735 735.19475095 484.67331979 742.8125 471.5625 C748.33885112 460.11013645 751.5138465 447.79721645 754.8125 435.5625 C752.1008868 435.5625 750.2333417 435.87639217 747.64257812 436.55297852 Z " fill="#0C1CEB" transform="translate(538.1875,327.4375)"/>
<path d="M0 0 C1.8871875 0.0309375 1.8871875 0.0309375 3.8125 0.0625 C3.131875 0.578125 2.45125 1.09375 1.75 1.625 C-1.12237371 4.00845903 -3.67684195 6.53013229 -6.27734375 9.19921875 C-8.89390425 11.75156918 -11.7211527 14.02156874 -14.5859375 16.2890625 C-16.56510999 18.48063399 -16.84207294 20.17078202 -17.1875 23.0625 C-17.5175 23.0625 -17.8475 23.0625 -18.1875 23.0625 C-18.77957954 16.64172634 -18.48562106 12.09501399 -14.6875 6.75390625 C-10.6295668 2.17816386 -6.05177956 -0.0992095 0 0 Z " fill="#5638C0" transform="translate(1291.1875,325.9375)"/>
</svg>
